<svg width="24" height="25" viewBox="0 0 24 25" fill="none" xmlns="http://www.w3.org/2000/svg">
<g id="Group">
<g id="Group_2">
<path id="Path" d="M5.121 6.25293C3.799 7.81893 3 9.83993 3 12.0499C3 14.2569 3.797 16.2759 5.116 17.8419" stroke="#0B111D" stroke-width="1.5" stroke-linecap="round" stroke-linejoin="round"/>
<path id="Path_2" d="M7.141 8.54004C6.426 9.52804 6 10.738 6 12.05C6 13.359 6.424 14.567 7.136 15.553" stroke="#0B111D" stroke-width="1.5" stroke-linecap="round" stroke-linejoin="round"/>
<path id="Path_3" fill-rule="evenodd" clip-rule="evenodd" d="M7.55007 19.6648L11.3761 15.3318C11.7081 14.9558 12.2941 14.9558 12.6261 15.3318L16.4521 19.6648C16.9261 20.2028 16.5431 21.0498 15.8261 21.0498H8.17407C7.45707 21.0498 7.07407 20.2028 7.55007 19.6648Z" stroke="#0B111D" stroke-width="1.5" stroke-linecap="round" stroke-linejoin="round"/>
<path id="Path_4" fill-rule="evenodd" clip-rule="evenodd" d="M16.45 4.4348L12.624 8.7678C12.292 9.1438 11.706 9.1438 11.374 8.7678L7.548 4.4348C7.074 3.8968 7.457 3.0498 8.174 3.0498H15.826C16.543 3.0498 16.926 3.8968 16.45 4.4348V4.4348Z" stroke="#0B111D" stroke-width="1.5" stroke-linecap="round" stroke-linejoin="round"/>
<path id="Path_5" d="M18.8839 6.25781C20.2029 7.82381 20.9999 9.84281 20.9999 12.0498C20.9999 14.2598 20.2009 16.2808 18.8789 17.8468" stroke="#0B111D" stroke-width="1.5" stroke-linecap="round" stroke-linejoin="round"/>
<path id="Path_6" d="M16.8639 8.54688C17.5759 9.53288 17.9999 10.7409 17.9999 12.0499C17.9999 13.3619 17.5739 14.5719 16.8589 15.5599" stroke="#0B111D" stroke-width="1.5" stroke-linecap="round" stroke-linejoin="round"/>
</g>
</g>
</svg>
