<svg width="24" height="25" viewBox="0 0 24 25" fill="none" xmlns="http://www.w3.org/2000/svg">
<g id="Group">
<g id="Group_2">
<path id="Path" fill-rule="evenodd" clip-rule="evenodd" d="M16.3349 21.0531H4.66403C3.74265 21.0531 2.99634 20.3068 2.99634 19.3854V7.71457C2.99634 6.79319 3.74265 6.04688 4.66403 6.04688H16.3359C17.2563 6.04688 18.0026 6.79319 18.0026 7.71457V19.3864C18.0026 20.3068 17.2563 21.0531 16.3349 21.0531Z" stroke="#0B111D" stroke-width="1.5" stroke-linecap="round" stroke-linejoin="round"/>
<path id="Path_2" d="M12.2682 10.2151C13.2446 11.1915 13.2446 12.7752 12.2682 13.7526C11.2918 14.729 9.70813 14.729 8.73073 13.7526C7.75332 12.7762 7.75432 11.1925 8.73073 10.2151C9.70713 9.23769 11.2908 9.2387 12.2682 10.2151" stroke="#0B111D" stroke-width="1.5" stroke-linecap="round" stroke-linejoin="round"/>
<path id="Path_3" d="M15.0013 18.486C14.8703 18.1568 14.6672 17.8607 14.4071 17.6196V17.6196C13.9679 17.2114 13.3926 16.9854 12.7924 16.9854C11.792 16.9854 9.2069 16.9854 8.20648 16.9854C7.60623 16.9854 7.03199 17.2124 6.59181 17.6196V17.6196C6.3317 17.8607 6.12861 18.1568 5.99756 18.486" stroke="#0B111D" stroke-width="1.5" stroke-linecap="round" stroke-linejoin="round"/>
<path id="Path_4" d="M5.99756 6.04715V4.71359C5.99756 3.79221 6.74387 3.0459 7.66525 3.0459H19.3371C20.2575 3.0459 21.0038 3.79221 21.0038 4.71359V16.3855C21.0038 17.3058 20.2575 18.0521 19.3361 18.0521H18.0026" stroke="#0B111D" stroke-width="1.5" stroke-linecap="round" stroke-linejoin="round"/>
</g>
</g>
</svg>
