<svg xmlns="http://www.w3.org/2000/svg" width="20" height="22" viewBox="0 0 20 22" fill="none">
<path d="M8.09823 21.9313L10.9639 18.7115C11.0122 18.6632 10.98 18.5827 10.8995 18.5827H7.74404C7.72794 18.5827 7.69574 18.5666 7.67964 18.5505L5.00715 15.556C4.99105 15.5238 4.97495 15.4916 4.99105 15.4594L9.46668 7.77998C9.48277 7.74779 9.48277 7.71559 9.46668 7.69949L7.61525 4.51181C7.58305 4.46351 7.50255 4.46351 7.47035 4.51181L0.853505 15.878C0.837406 15.9102 0.837406 15.9424 0.853505 15.9746L6.1663 21.9474C6.1824 21.9635 6.1985 21.9796 6.2307 21.9796H8.03383C8.04993 21.9635 8.08213 21.9474 8.09823 21.9313Z" fill="#0B111D"/>
<path d="M10.0623 0.068806L8.19481 3.25648C8.17871 3.28868 8.17871 3.32088 8.19481 3.33698L10.1267 6.65345L15.2463 15.4437C15.2624 15.4759 15.2624 15.5081 15.2302 15.5403L12.5255 18.567L9.64376 21.8191C9.59546 21.8674 9.62766 21.9479 9.70816 21.9479H14.0228C14.0389 21.9479 14.0711 21.9318 14.0872 21.9157L19.4 15.9428C19.4161 15.9106 19.4322 15.8784 19.4161 15.8462L10.1911 0.068806C10.175 0.00440843 10.0945 0.00440843 10.0623 0.068806Z" fill="#0B111D"/>
</svg>