<svg width="224" height="32" viewBox="0 0 224 32" fill="none" xmlns="http://www.w3.org/2000/svg">
<rect width="224" height="32" fill="#333333"/>
<g id="Store">
<rect width="1440" height="1024" transform="translate(-40 -40)" fill="#EEEEEF"/>
<g id="Frame 9">
<rect x="-20" y="-20" width="264" height="984" rx="20" fill="white"/>
<g id="Frame 10">
<g id="Group 24">
<g id="Vector">
<path d="M28.1778 18.3522C28.3124 17.8286 28.7679 17.4359 29.3084 17.4359C29.9734 17.4359 30.4913 18.0197 30.3572 18.671C28.9029 25.7366 22.6476 31.0493 15.1516 31.0493C7.79998 31.0493 1.64187 25.9394 0.0353343 19.0775C-0.166666 18.2148 0.52482 17.4359 1.41094 17.4359H13.1567C13.877 17.4359 14.4812 17.9604 14.6807 18.6526C15.6827 22.1301 18.3077 24.6115 21.3883 24.6115C24.5568 24.6115 27.2434 21.9863 28.1778 18.3522Z" fill="#0B111D"/>
<path d="M28.1778 12.6972C28.3124 13.2207 28.7679 13.6134 29.3084 13.6134C29.9734 13.6134 30.4913 13.0296 30.3572 12.3783C28.9029 5.31277 22.6476 0 15.1516 0C7.79998 0 1.64187 5.10996 0.0353345 11.9718C-0.166666 12.8346 0.52482 13.6134 1.41094 13.6134H13.1567C13.877 13.6134 14.4812 13.089 14.6807 12.3968C15.6827 8.91928 18.3077 6.43788 21.3883 6.43788C24.5568 6.43788 27.2434 9.06306 28.1778 12.6972Z" fill="#0B111D"/>
<path d="M21.7875 10.7378C21.9512 10.6432 22.153 10.6432 22.3167 10.7378L26.0653 12.9021C26.2291 12.9966 26.33 13.1713 26.33 13.3604V17.6889C26.33 17.878 26.2291 18.0527 26.0653 18.1473L22.3167 20.3116C22.153 20.4061 21.9512 20.4061 21.7875 20.3116L18.0388 18.1473C17.8751 18.0527 17.7742 17.878 17.7742 17.6889V13.3604C17.7742 13.1713 17.8751 12.9966 18.0388 12.9021L21.7875 10.7378Z" fill="#0B111D"/>
</g>
<g id="POKECOIN">
<path d="M48.0203 26.4358V4.61402H58.5259C60.5626 4.61402 62.3188 4.94654 63.7943 5.61159C65.2907 6.27663 66.4441 7.23264 67.2546 8.4796C68.0652 9.70578 68.4704 11.1606 68.4704 12.844C68.4704 14.5274 68.0652 15.9822 67.2546 17.2083C66.4441 18.4345 65.2907 19.3905 63.7943 20.0763C62.3188 20.7414 60.5626 21.0739 58.5259 21.0739H52.1041L55.3773 17.9253V26.4358H48.0203ZM55.3773 18.7359L52.1041 15.4002H58.0583C59.0767 15.4002 59.8248 15.1716 60.3028 14.7144C60.8016 14.2572 61.051 13.6337 61.051 12.844C61.051 12.0542 60.8016 11.4307 60.3028 10.9735C59.8248 10.5163 59.0767 10.2877 58.0583 10.2877H52.1041L55.3773 6.95207V18.7359Z" fill="#0B111D"/>
<path d="M82.6285 26.9346C80.862 26.9346 79.2202 26.6541 77.7031 26.0929C76.2067 25.5318 74.9078 24.7421 73.8063 23.7237C72.7048 22.6846 71.8423 21.4688 71.2189 20.0763C70.6162 18.6839 70.3148 17.1668 70.3148 15.5249C70.3148 13.8623 70.6162 12.3452 71.2189 10.9735C71.8423 9.58108 72.7048 8.37569 73.8063 7.35733C74.9078 6.3182 76.2067 5.51807 77.7031 4.95693C79.2202 4.3958 80.862 4.11523 82.6285 4.11523C84.4159 4.11523 86.0577 4.3958 87.554 4.95693C89.0504 5.51807 90.3493 6.3182 91.4508 7.35733C92.5523 8.37569 93.4044 9.58108 94.0071 10.9735C94.6305 12.3452 94.9423 13.8623 94.9423 15.5249C94.9423 17.1668 94.6305 18.6839 94.0071 20.0763C93.4044 21.4688 92.5523 22.6846 91.4508 23.7237C90.3493 24.7421 89.0504 25.5318 87.554 26.0929C86.0577 26.6541 84.4159 26.9346 82.6285 26.9346ZM82.6285 20.9804C83.3144 20.9804 83.9482 20.8557 84.5302 20.6063C85.1329 20.3569 85.6524 20.0036 86.0889 19.5464C86.5461 19.0684 86.8994 18.4969 87.1488 17.8318C87.3982 17.146 87.5229 16.377 87.5229 15.5249C87.5229 14.6728 87.3982 13.9143 87.1488 13.2492C86.8994 12.5634 86.5461 11.9919 86.0889 11.5347C85.6524 11.0567 85.1329 10.693 84.5302 10.4436C83.9482 10.1942 83.3144 10.0695 82.6285 10.0695C81.9427 10.0695 81.2985 10.1942 80.6958 10.4436C80.1138 10.693 79.5943 11.0567 79.1371 11.5347C78.7006 11.9919 78.3577 12.5634 78.1083 13.2492C77.8589 13.9143 77.7342 14.6728 77.7342 15.5249C77.7342 16.377 77.8589 17.146 78.1083 17.8318C78.3577 18.4969 78.7006 19.0684 79.1371 19.5464C79.5943 20.0036 80.1138 20.3569 80.6958 20.6063C81.2985 20.8557 81.9427 20.9804 82.6285 20.9804Z" fill="#0B111D"/>
<path d="M104.19 21.7597L103.785 13.6857L112.015 4.61402H120.027L110.799 14.7768L106.715 18.9541L104.19 21.7597ZM97.6125 26.4358V4.61402H104.845V26.4358H97.6125ZM111.953 26.4358L105.531 17.9565L110.3 12.9063L120.463 26.4358H111.953Z" fill="#0B111D"/>
<path d="M128.183 12.7193H137.91V18.0189H128.183V12.7193ZM128.682 20.8869H139.593V26.4358H121.45V4.61402H139.188V10.163H128.682V20.8869Z" fill="#0B111D"/>
<path d="M153.71 26.9346C151.964 26.9346 150.343 26.6645 148.847 26.1241C147.371 25.563 146.083 24.7732 144.981 23.7549C143.901 22.7365 143.059 21.5311 142.456 20.1387C141.854 18.7463 141.552 17.2083 141.552 15.5249C141.552 13.8415 141.854 12.3036 142.456 10.9112C143.059 9.51873 143.901 8.31334 144.981 7.29499C146.083 6.27663 147.371 5.49728 148.847 4.95693C150.343 4.3958 151.964 4.11523 153.71 4.11523C155.851 4.11523 157.742 4.48932 159.384 5.2375C161.046 5.98568 162.418 7.06638 163.499 8.4796L158.854 12.6257C158.21 11.8152 157.493 11.1917 156.703 10.7553C155.934 10.2981 155.061 10.0695 154.084 10.0695C153.315 10.0695 152.619 10.1942 151.996 10.4436C151.372 10.693 150.832 11.0567 150.375 11.5347C149.938 12.0127 149.595 12.5946 149.346 13.2804C149.096 13.9454 148.972 14.6936 148.972 15.5249C148.972 16.3562 149.096 17.1148 149.346 17.8006C149.595 18.4657 149.938 19.0372 150.375 19.5152C150.832 19.9932 151.372 20.3569 151.996 20.6063C152.619 20.8557 153.315 20.9804 154.084 20.9804C155.061 20.9804 155.934 20.7622 156.703 20.3257C157.493 19.8685 158.21 19.2346 158.854 18.4241L163.499 22.5703C162.418 23.9627 161.046 25.0434 159.384 25.8124C157.742 26.5605 155.851 26.9346 153.71 26.9346Z" fill="#0B111D"/>
<path d="M176.607 26.9346C174.841 26.9346 173.199 26.6541 171.682 26.0929C170.185 25.5318 168.887 24.7421 167.785 23.7237C166.684 22.6846 165.821 21.4688 165.198 20.0763C164.595 18.6839 164.294 17.1668 164.294 15.5249C164.294 13.8623 164.595 12.3452 165.198 10.9735C165.821 9.58108 166.684 8.37569 167.785 7.35733C168.887 6.3182 170.185 5.51807 171.682 4.95693C173.199 4.3958 174.841 4.11523 176.607 4.11523C178.395 4.11523 180.036 4.3958 181.533 4.95693C183.029 5.51807 184.328 6.3182 185.43 7.35733C186.531 8.37569 187.383 9.58108 187.986 10.9735C188.609 12.3452 188.921 13.8623 188.921 15.5249C188.921 17.1668 188.609 18.6839 187.986 20.0763C187.383 21.4688 186.531 22.6846 185.43 23.7237C184.328 24.7421 183.029 25.5318 181.533 26.0929C180.036 26.6541 178.395 26.9346 176.607 26.9346ZM176.607 20.9804C177.293 20.9804 177.927 20.8557 178.509 20.6063C179.112 20.3569 179.631 20.0036 180.068 19.5464C180.525 19.0684 180.878 18.4969 181.128 17.8318C181.377 17.146 181.502 16.377 181.502 15.5249C181.502 14.6728 181.377 13.9143 181.128 13.2492C180.878 12.5634 180.525 11.9919 180.068 11.5347C179.631 11.0567 179.112 10.693 178.509 10.4436C177.927 10.1942 177.293 10.0695 176.607 10.0695C175.921 10.0695 175.277 10.1942 174.674 10.4436C174.093 10.693 173.573 11.0567 173.116 11.5347C172.679 11.9919 172.336 12.5634 172.087 13.2492C171.838 13.9143 171.713 14.6728 171.713 15.5249C171.713 16.377 171.838 17.146 172.087 17.8318C172.336 18.4969 172.679 19.0684 173.116 19.5464C173.573 20.0036 174.093 20.3569 174.674 20.6063C175.277 20.8557 175.921 20.9804 176.607 20.9804Z" fill="#0B111D"/>
<path d="M191.591 26.4358V4.61402H198.948V26.4358H191.591Z" fill="#0B111D"/>
<path d="M202.49 26.4358V4.61402H208.538L219.636 17.8942H216.83V4.61402H224V26.4358H217.952L206.854 13.1557H209.66V26.4358H202.49Z" fill="#0B111D"/>
</g>
</g>
</g>
</g>
</g>
</svg>
