<svg width="24" height="25" viewBox="0 0 24 25" fill="none" xmlns="http://www.w3.org/2000/svg">
<g id="Group">
<g id="Group_2">
<path id="Path" fill-rule="evenodd" clip-rule="evenodd" d="M18.064 7.0498H5.93597C5.40897 7.0498 4.97297 7.4578 4.93797 7.9828L4.14197 19.9168C4.06497 21.0708 4.98097 22.0498 6.13797 22.0498H17.862C19.019 22.0498 19.935 21.0708 19.858 19.9168L19.062 7.9828C19.027 7.4578 18.591 7.0498 18.064 7.0498Z" stroke="#0B111D" stroke-width="1.5" stroke-linecap="round" stroke-linejoin="round"/>
<path id="Path_2" d="M15.001 9.0498V5.0498V5.0498V5.0498C15.001 3.3928 13.658 2.0498 12.001 2.0498H12C10.343 2.0498 9 3.3928 9 5.0498V5.0498V5.0498V9.0498" stroke="#0B111D" stroke-width="1.5" stroke-linecap="round" stroke-linejoin="round"/>
<path id="Path_3" d="M10 12.0498V13.0498" stroke="#0B111D" stroke-width="1.5" stroke-linecap="round" stroke-linejoin="round"/>
<path id="Path_4" d="M14 12.0498V13.0498" stroke="#0B111D" stroke-width="1.5" stroke-linecap="round" stroke-linejoin="round"/>
<path id="Path_5" d="M15.5 16.7383C15.5 16.7383 14.187 18.0503 12 18.0503C9.812 18.0503 8.5 16.7383 8.5 16.7383" stroke="#0B111D" stroke-width="1.5" stroke-linecap="round" stroke-linejoin="round"/>
</g>
</g>
</svg>
