<svg width="24" height="25" viewBox="0 0 24 25" fill="none" xmlns="http://www.w3.org/2000/svg">
<g id="Group">
<g id="Layer_2">
<path id="Rectangle" fill-rule="evenodd" clip-rule="evenodd" d="M12.6084 6.74913C13.0311 5.72864 14.201 5.24403 15.2215 5.66673L20.7648 7.96283C21.7853 8.38554 22.2699 9.55547 21.8472 10.576L18.0204 19.8148C17.5977 20.8352 16.4277 21.3198 15.4072 20.8971L9.86397 18.601C8.84348 18.1783 8.35888 17.0084 8.78158 15.9879L12.6084 6.74913Z" stroke="#0B111D" stroke-width="1.5" stroke-linecap="round" stroke-linejoin="round"/>
<path id="Path" fill-rule="evenodd" clip-rule="evenodd" d="M16.6486 11.5436L17.1978 13.5C17.2983 13.873 17.1351 14.2669 16.8003 14.4596L15.0286 15.4546C14.8365 15.5682 14.6022 15.5847 14.3961 15.4993C14.19 15.414 14.036 15.2366 13.9805 15.0205L13.4312 13.0641C13.3308 12.6911 13.4939 12.2972 13.8287 12.1045L15.6005 11.1095C15.7925 10.9959 16.0268 10.9794 16.233 11.0647C16.4391 11.1501 16.593 11.3275 16.6486 11.5436V11.5436Z" stroke="#0B111D" stroke-width="1.5" stroke-linecap="round" stroke-linejoin="round"/>
<path id="Path_2" d="M6.99997 6.40332L3.23514 7.96277C2.74507 8.16576 2.35572 8.55511 2.15273 9.04517C1.94974 9.53524 1.94974 10.0859 2.15274 10.5759L5.97958 19.8148C6.18256 20.3048 6.57191 20.6941 7.06197 20.8971C7.55203 21.1001 8.10264 21.1001 8.59268 20.897L12 19.4858" stroke="#0B111D" stroke-width="1.5" stroke-linecap="round" stroke-linejoin="round"/>
<path id="Path_3" d="M17 6.40325V4.5498C17 3.44524 16.1046 2.5498 15 2.5498H9C7.89543 2.5498 7 3.44524 7 4.5498V14.5498C7.00097 15.5189 7.69758 16.3474 8.6521 16.5146" stroke="#0B111D" stroke-width="1.5" stroke-linecap="round" stroke-linejoin="round"/>
</g>
</g>
</svg>
