<svg width="24" height="25" viewBox="0 0 24 25" fill="none" xmlns="http://www.w3.org/2000/svg">
<g id="Group">
<path id="Path" d="M12 3.0459C15.5914 3.0459 18.5027 5.95726 18.5027 9.54861C18.5027 13.14 15.5914 16.0513 12 16.0513C8.40868 16.0513 5.49731 13.14 5.49731 9.54861C5.49731 5.95726 8.40868 3.0459 12 3.0459" stroke="#0B111D" stroke-width="1.5" stroke-linecap="round" stroke-linejoin="round"/>
<path id="Path_2" d="M6.99805 16.052H17.0022" stroke="#0B111D" stroke-width="1.5" stroke-linecap="round" stroke-linejoin="round"/>
<path id="Path_3" d="M18.0035 12.0498H19.003C20.108 12.0498 21.0038 12.9456 21.0038 14.0506V19.0527C21.0038 20.1578 20.108 21.0536 19.003 21.0536H4.99717C3.89214 21.0536 2.99634 20.1578 2.99634 19.0527V14.0506C2.99634 12.9456 3.89214 12.0498 4.99717 12.0498H5.99671" stroke="#0B111D" stroke-width="1.5" stroke-linecap="round" stroke-linejoin="round"/>
<path id="Path_4" d="M9.99927 10.0488L12.0001 12.0497L14.0009 10.0488" stroke="#0B111D" stroke-width="1.5" stroke-linecap="round" stroke-linejoin="round"/>
<path id="Path_5" d="M12.0002 7.04785V12.0499" stroke="#0B111D" stroke-width="1.5" stroke-linecap="round" stroke-linejoin="round"/>
</g>
</svg>
